<svg xmlns="http://www.w3.org/2000/svg" version="1.1" xmlns:xlink="http://www.w3.org/1999/xlink" xmlns:svgjs="http://svgjs.dev/svgjs" width="1000" height="1000" viewBox="0 0 1000 1000"><rect width="1000" height="1000" fill="#282634"></rect><g transform="matrix(0.7,0,0,0.7,149.57575757575756,358.4071463690711)"><svg viewBox="0 0 396 160" data-background-color="#282634" preserveAspectRatio="xMidYMid meet" height="404" width="1000" xmlns="http://www.w3.org/2000/svg" xmlns:xlink="http://www.w3.org/1999/xlink"><g id="tight-bounds" transform="matrix(1,0,0,1,0.2400000000000091,0.10911096516488783)"><svg viewBox="0 0 395.52 159.78177694768544" height="159.78177694768544" width="395.52"><g><svg viewBox="0 0 395.52 159.78177694768544" height="159.78177694768544" width="395.52"><g transform="matrix(1,0,0,1,0,98.75154828064697)"><svg viewBox="0 0 395.52 61.03022866703848" height="61.03022866703848" width="395.52"><g><svg viewBox="0 0 395.52 61.03022866703848" height="61.03022866703848" width="395.52" id="textblock"><g><svg viewBox="0 0 395.52 61.03022866703848" height="61.03022866703848" width="395.52"><g transform="matrix(1,0,0,1,0,0)"><svg width="395.52" viewBox="2.049999952316284 -40.95000076293945 268.9300231933594 41.5" height="61.03022866703848" data-palette-color="#ff4057"><g class="undefined-text-0" data-fill-palette-color="primary" id="text-0"><path d="M13.25 0.55L13.25 0.55Q9.6 0.55 7.15-0.88 4.7-2.3 3.45-5.05 2.2-7.8 2.05-11.8L2.05-11.8 8.4-13.05Q8.5-10.7 8.97-8.9 9.45-7.1 10.43-6.13 11.4-5.15 13-5.15L13-5.15Q14.8-5.15 15.55-6.23 16.3-7.3 16.3-8.95L16.3-8.95Q16.3-11.6 15.1-13.3 13.9-15 11.9-16.7L11.9-16.7 6.8-21.2Q4.65-23.05 3.38-25.33 2.1-27.6 2.1-30.95L2.1-30.95Q2.1-35.75 4.9-38.35 7.7-40.95 12.55-40.95L12.55-40.95Q15.4-40.95 17.3-40.08 19.2-39.2 20.33-37.65 21.45-36.1 22-34.13 22.55-32.15 22.7-29.95L22.7-29.95 16.4-28.85Q16.3-30.75 15.98-32.25 15.65-33.75 14.83-34.6 14-35.45 12.4-35.45L12.4-35.45Q10.75-35.45 9.88-34.38 9-33.3 9-31.7L9-31.7Q9-29.65 9.85-28.33 10.7-27 12.3-25.6L12.3-25.6 17.35-21.15Q19.85-19.05 21.63-16.23 23.4-13.4 23.4-9.4L23.4-9.4Q23.4-6.5 22.13-4.25 20.85-2 18.57-0.73 16.3 0.55 13.25 0.55ZM38.65 0.55L38.65 0.55Q34.2 0.55 31.67-1.2 29.15-2.95 28.15-5.98 27.15-9 27.15-12.95L27.15-12.95 27.15-27.4Q27.15-31.55 28.15-34.6 29.15-37.65 31.67-39.3 34.2-40.95 38.65-40.95L38.65-40.95Q42.85-40.95 45.22-39.53 47.6-38.1 48.6-35.45 49.6-32.8 49.6-29.3L49.6-29.3 49.6-25.9 42.5-25.9 42.5-29.4Q42.5-31.1 42.32-32.5 42.15-33.9 41.37-34.73 40.6-35.55 38.7-35.55L38.7-35.55Q36.8-35.55 35.92-34.68 35.05-33.8 34.8-32.33 34.55-30.85 34.55-29L34.55-29 34.55-11.4Q34.55-9.2 34.9-7.78 35.25-6.35 36.17-5.63 37.1-4.9 38.7-4.9L38.7-4.9Q40.55-4.9 41.32-5.78 42.1-6.65 42.3-8.1 42.5-9.55 42.5-11.35L42.5-11.35 42.5-15 49.6-15 49.6-11.75Q49.6-8.15 48.65-5.38 47.7-2.6 45.32-1.03 42.95 0.55 38.65 0.55ZM62.15 0L54.75 0 54.75-40.5 64.45-40.5Q68.55-40.5 71.37-39.53 74.2-38.55 75.67-36.2 77.15-33.85 77.15-29.8L77.15-29.8Q77.15-27.35 76.7-25.4 76.25-23.45 75.17-22.08 74.1-20.7 72.2-19.95L72.2-19.95 77.85 0 70.45 0 65.55-18.55 62.15-18.55 62.15 0ZM62.15-35.45L62.15-23.2 64.45-23.2Q66.6-23.2 67.87-23.83 69.15-24.45 69.7-25.83 70.25-27.2 70.25-29.35L70.25-29.35Q70.25-32.4 69.12-33.93 68-35.45 64.85-35.45L64.85-35.45 62.15-35.45ZM99.89 0L82.79 0 82.79-40.5 99.79-40.5 99.79-35.3 90.19-35.3 90.19-23.65 97.74-23.65 97.74-18.5 90.19-18.5 90.19-5.1 99.89-5.1 99.89 0ZM121.29 0L104.19 0 104.19-40.5 121.19-40.5 121.19-35.3 111.59-35.3 111.59-23.65 119.14-23.65 119.14-18.5 111.59-18.5 111.59-5.1 121.29-5.1 121.29 0ZM131.89 0L125.59 0 125.59-40.5 130.74-40.5 140.59-17.4 140.59-40.5 146.69-40.5 146.69 0 141.79 0 131.89-24.2 131.89 0Z" fill="#ff4057" data-fill-palette-color="primary"></path><path d="M159.94 0.55L159.94 0.55Q156.29 0.55 153.84-0.88 151.39-2.3 150.14-5.05 148.89-7.8 148.74-11.8L148.74-11.8 155.09-13.05Q155.19-10.7 155.66-8.9 156.14-7.1 157.12-6.13 158.09-5.15 159.69-5.15L159.69-5.15Q161.49-5.15 162.24-6.23 162.99-7.3 162.99-8.95L162.99-8.95Q162.99-11.6 161.79-13.3 160.59-15 158.59-16.7L158.59-16.7 153.49-21.2Q151.34-23.05 150.07-25.33 148.79-27.6 148.79-30.95L148.79-30.95Q148.79-35.75 151.59-38.35 154.39-40.95 159.24-40.95L159.24-40.95Q162.09-40.95 163.99-40.08 165.89-39.2 167.02-37.65 168.14-36.1 168.69-34.13 169.24-32.15 169.39-29.95L169.39-29.95 163.09-28.85Q162.99-30.75 162.67-32.25 162.34-33.75 161.52-34.6 160.69-35.45 159.09-35.45L159.09-35.45Q157.44-35.45 156.57-34.38 155.69-33.3 155.69-31.7L155.69-31.7Q155.69-29.65 156.54-28.33 157.39-27 158.99-25.6L158.99-25.6 164.04-21.15Q166.54-19.05 168.32-16.23 170.09-13.4 170.09-9.4L170.09-9.4Q170.09-6.5 168.82-4.25 167.54-2 165.26-0.73 162.99 0.55 159.94 0.55ZM181.84 0L174.44 0 174.44-40.5 186.34-40.5Q189.99-40.5 192.26-39.15 194.54-37.8 195.61-35.23 196.69-32.65 196.69-29L196.69-29Q196.69-25.05 195.34-22.63 193.99-20.2 191.56-19.1 189.14-18 185.84-18L185.84-18 181.84-18 181.84 0ZM181.84-35.3L181.84-23.2 184.64-23.2Q186.64-23.2 187.76-23.78 188.89-24.35 189.31-25.63 189.74-26.9 189.74-29.05L189.74-29.05Q189.74-31.25 189.41-32.63 189.09-34 188.01-34.65 186.94-35.3 184.64-35.3L184.64-35.3 181.84-35.3ZM205.69 0L198.74 0 206.84-40.5 214.74-40.5 222.84 0 215.99 0 214.39-9.35 207.34-9.35 205.69 0ZM210.84-31.05L208.09-14.05 213.59-14.05 210.84-31.05ZM237.78 0.55L237.78 0.55Q233.33 0.55 230.81-1.2 228.28-2.95 227.28-5.98 226.28-9 226.28-12.95L226.28-12.95 226.28-27.4Q226.28-31.55 227.28-34.6 228.28-37.65 230.81-39.3 233.33-40.95 237.78-40.95L237.78-40.95Q241.98-40.95 244.36-39.53 246.73-38.1 247.73-35.45 248.73-32.8 248.73-29.3L248.73-29.3 248.73-25.9 241.63-25.9 241.63-29.4Q241.63-31.1 241.46-32.5 241.28-33.9 240.51-34.73 239.73-35.55 237.83-35.55L237.83-35.55Q235.93-35.55 235.06-34.68 234.18-33.8 233.93-32.33 233.68-30.85 233.68-29L233.68-29 233.68-11.4Q233.68-9.2 234.03-7.78 234.38-6.35 235.31-5.63 236.23-4.9 237.83-4.9L237.83-4.9Q239.68-4.9 240.46-5.78 241.23-6.65 241.43-8.1 241.63-9.55 241.63-11.35L241.63-11.35 241.63-15 248.73-15 248.73-11.75Q248.73-8.15 247.78-5.38 246.83-2.6 244.46-1.03 242.08 0.55 237.78 0.55ZM270.98 0L253.88 0 253.88-40.5 270.88-40.5 270.88-35.3 261.28-35.3 261.28-23.65 268.83-23.65 268.83-18.5 261.28-18.5 261.28-5.1 270.98-5.1 270.98 0Z" fill="#dcdcdc" data-fill-palette-color="secondary"></path></g></svg></g></svg></g></svg></g></svg></g><g transform="matrix(1,0,0,1,151.9246529036963,0)"><svg viewBox="0 0 91.67069419260739 84.34377601784719" height="84.34377601784719" width="91.67069419260739"><g><svg xmlns="http://www.w3.org/2000/svg" xmlns:xlink="http://www.w3.org/1999/xlink" version="1.1" x="0" y="0" viewBox="7.003994464874268 11 49.99600601196289 46" enable-background="new 0 0 64 64" xml:space="preserve" height="84.34377601784719" width="91.67069419260739" class="icon-icon-0" data-fill-palette-color="accent" id="icon-0"><g fill="#dcdcdc" data-fill-palette-color="accent"><g fill="#dcdcdc" data-fill-palette-color="accent"><path d="M52 29c-1.13 0-2.162 0.391-3 1.025V24c0-7.168-5.832-13-13-13h-8c-7.168 0-13 5.832-13 13v6.025C14.162 29.391 13.13 29 12 29c-2.757 0-5 2.243-4.996 5.091l2 22C9.051 56.605 9.483 57 10 57h6c0.552 0 1-0.447 1-1v-7h30v7c0 0.553 0.447 1 1 1h6c0.518 0 0.949-0.395 0.996-0.909L57 34C57 31.243 54.757 29 52 29zM15 48v7h-4.087L9 34c0-1.654 1.346-3 3-3s3 1.346 3 3V48zM47 47H17v-2h30V47zM47 43H17v-2h30V43zM47 34v5H17v-5V24c0-6.065 4.935-11 11-11h8c6.065 0 11 4.935 11 11V34zM53.087 55H49v-7V34c0-1.654 1.346-3 3-3s3 1.346 3.004 2.909L53.087 55z" fill="#dcdcdc" data-fill-palette-color="accent"></path><path d="M40.707 19.293c-0.391-0.391-1.023-0.391-1.414 0L39 19.586l-0.293-0.293c-0.391-0.391-1.023-0.391-1.414 0s-0.391 1.023 0 1.414L37.586 21l-0.293 0.293c-0.391 0.391-0.391 1.023 0 1.414C37.488 22.902 37.744 23 38 23s0.512-0.098 0.707-0.293L39 22.414l0.293 0.293C39.488 22.902 39.744 23 40 23s0.512-0.098 0.707-0.293c0.391-0.391 0.391-1.023 0-1.414L40.414 21l0.293-0.293C41.098 20.316 41.098 19.684 40.707 19.293z" fill="#dcdcdc" data-fill-palette-color="accent"></path><path d="M26.707 19.293c-0.391-0.391-1.023-0.391-1.414 0L25 19.586l-0.293-0.293c-0.391-0.391-1.023-0.391-1.414 0s-0.391 1.023 0 1.414L23.586 21l-0.293 0.293c-0.391 0.391-0.391 1.023 0 1.414C23.488 22.902 23.744 23 24 23s0.512-0.098 0.707-0.293L25 22.414l0.293 0.293C25.488 22.902 25.744 23 26 23s0.512-0.098 0.707-0.293c0.391-0.391 0.391-1.023 0-1.414L26.414 21l0.293-0.293C27.098 20.316 27.098 19.684 26.707 19.293z" fill="#dcdcdc" data-fill-palette-color="accent"></path><path d="M40.707 31.293c-0.391-0.391-1.023-0.391-1.414 0L39 31.586l-0.293-0.293c-0.391-0.391-1.023-0.391-1.414 0s-0.391 1.023 0 1.414L37.586 33l-0.293 0.293c-0.391 0.391-0.391 1.023 0 1.414C37.488 34.902 37.744 35 38 35s0.512-0.098 0.707-0.293L39 34.414l0.293 0.293C39.488 34.902 39.744 35 40 35s0.512-0.098 0.707-0.293c0.391-0.391 0.391-1.023 0-1.414L40.414 33l0.293-0.293C41.098 32.316 41.098 31.684 40.707 31.293z" fill="#dcdcdc" data-fill-palette-color="accent"></path><path d="M26.707 31.293c-0.391-0.391-1.023-0.391-1.414 0L25 31.586l-0.293-0.293c-0.391-0.391-1.023-0.391-1.414 0s-0.391 1.023 0 1.414L23.586 33l-0.293 0.293c-0.391 0.391-0.391 1.023 0 1.414C23.488 34.902 23.744 35 24 35s0.512-0.098 0.707-0.293L25 34.414l0.293 0.293C25.488 34.902 25.744 35 26 35s0.512-0.098 0.707-0.293c0.391-0.391 0.391-1.023 0-1.414L26.414 33l0.293-0.293C27.098 32.316 27.098 31.684 26.707 31.293z" fill="#dcdcdc" data-fill-palette-color="accent"></path><path d="M33.707 25.293c-0.391-0.391-1.023-0.391-1.414 0L32 25.586l-0.293-0.293c-0.391-0.391-1.023-0.391-1.414 0s-0.391 1.023 0 1.414L30.586 27l-0.293 0.293c-0.391 0.391-0.391 1.023 0 1.414C30.488 28.902 30.744 29 31 29s0.512-0.098 0.707-0.293L32 28.414l0.293 0.293C32.488 28.902 32.744 29 33 29s0.512-0.098 0.707-0.293c0.391-0.391 0.391-1.023 0-1.414L33.414 27l0.293-0.293C34.098 26.316 34.098 25.684 33.707 25.293z" fill="#dcdcdc" data-fill-palette-color="accent"></path></g></g></svg></g></svg></g><g></g></svg></g><defs></defs></svg><rect width="395.52" height="159.78177694768544" fill="none" stroke="none" visibility="hidden"></rect></g></svg></g></svg>